<svg width="31" height="38" viewBox="0 0 31 38" fill="none" xmlns="http://www.w3.org/2000/svg">
<path d="M0.106445 30.391C0.106445 27.8006 2.21272 25.6997 4.80977 25.6997H11.4558V37.5298H0.106445V30.391Z" fill="#FACC15"/>
<path d="M1.84474 6.57795C3.05125 4.77284 4.59517 3.61024 4.59517 3.61024C5.50516 2.92695 6.5174 2.40683 7.75458 1.9377C10.7708 0.611919 15.1368 2.90655 15.1368 2.90655C15.1368 2.90655 14.4313 3.11052 13.6644 3.64083C12.642 4.35471 12.1818 5.39494 11.8649 6.32299C11.0674 8.59722 11.1185 10.6573 11.2207 16.2358C11.231 16.7865 11.2514 17.9185 11.2616 18.4182C9.99377 18.4896 8.09199 18.7548 5.97549 19.6726C3.34776 20.8046 1.6198 22.4058 0.689359 23.4256C-0.711415 15.3893 0.198579 9.03575 1.84474 6.57795Z" fill="#FACC15"/>
<path d="M15.5763 26.1078C23.6538 26.1078 30.4531 20.1009 30.4531 12.9519C30.4531 5.80286 23.7969 0 15.5763 0C12.6623 0 9.9323 0.734281 7.64199 1.99888C8.82804 1.66233 10.1061 1.55015 11.4353 1.73372C15.7808 2.34562 19.206 5.25215 19.206 10.6573C19.206 13.4312 17.4679 17.1842 13.8892 19.0709C12.2431 19.9378 10.5356 20.5497 8.96097 21.1208C7.11031 21.7837 5.43347 22.3854 4.27808 23.2522C4.20651 23.3032 4.12472 23.3644 4.05314 23.4256C2.88754 24.2823 0.750587 26.0058 0.188232 29.4732C0.392725 29.0143 0.648341 28.6573 0.80171 28.382C1.56856 27.2296 2.499 26.6177 3.56236 26.3627C4.43145 26.1078 6.5684 26.1078 7.44772 26.1078H15.5763Z" fill="#FEF08A"/>
</svg>
